<svg fill="#ffffff" height="200px" width="200px" version="1.1" id="Layer_1" xmlns="http://www.w3.org/2000/svg" xmlns:xlink="http://www.w3.org/1999/xlink" viewBox="0 0 512.003 512.003" xml:space="preserve"><g id="SVGRepo_bgCarrier" stroke-width="0"></g><g id="SVGRepo_tracerCarrier" stroke-linecap="round" stroke-linejoin="round"></g><g id="SVGRepo_iconCarrier"> <g> <g> <g> <path d="M493.469,141.436l-24.135-3.198V53.33c0-11.782-9.551-21.333-21.333-21.333H21.333C9.551,31.997,0,41.548,0,53.33 v298.667c0,8.097,4.511,15.139,11.156,18.753L7.31,399.806c-1.545,11.67,6.655,22.386,18.323,23.945l419.541,56.064 c11.594,1.549,22.273-6.526,23.941-18.103l42.667-296.085C513.476,153.872,505.243,142.996,493.469,141.436z M42.667,330.664 V159.997h384v170.667H42.667z M426.667,74.664v42.667h-384V74.664H426.667z M52.404,384.283l1.449-10.946h384.89l-8.847,61.391 L52.404,384.283z"></path> <path d="M384.015,223.997H298.66c-11.776,0-21.333,9.536-21.333,21.312v42.709c0,11.776,9.557,21.312,21.333,21.312h85.355 c11.776,0,21.312-9.536,21.312-21.312v-42.709C405.327,233.533,395.791,223.997,384.015,223.997z"></path> </g> </g> </g> </g></svg>